# xmcd
#
# Track frame offsets: 
#        150
#        25115
#        47409
#        68097
#        89999
#        113371
#        140624
#        152615
#        163468
#        179317
#
# Disc length: 2740 seconds
#
# Revision: 0
# Processed by: cddbd v1.5.2PL0 Copyright (c) Steve Scherf et al.
# Submitted via: ExactAudioCopy v0.99pb5
#
DISCID=810ab20a
DTITLE=Painted Saints - Company Town
DYEAR=2006
DGENRE=Blues
TTITLE0=Company Town
TTITLE1=Contraptions and Cigarettes
TTITLE2=Cardboard and Silence Saved Us Again
TTITLE3=Barbed Wire and Tin
TTITLE4=Kerosene
TTITLE5=Doused Appleway
TTITLE6=Miles of Twine
TTITLE7=The Volvo King of New York
TTITLE8=Everytime I Smile Wrong (Sopping Thursday)
TTITLE9=To Answer Monotone
EXTD=
EXTT0=
EXTT1=
EXTT2=
EXTT3=
EXTT4=
EXTT5=
EXTT6=
EXTT7=
EXTT8=
EXTT9=
PLAYORDER=
